<?xml version="1.0" standalone="no"?>
<!DOCTYPE svg PUBLIC "-//W3C//DTD SVG 1.1//EN" "http://www.w3.org/Graphics/SVG/1.1/DTD/svg11.dtd" >
<svg xmlns="http://www.w3.org/2000/svg" xmlns:xlink="http://www.w3.org/1999/xlink" version="1.1">
<metadata></metadata>
<defs>
<font id="aganbold" horiz-adv-x="1251" >
<font-face units-per-em="2048" ascent="1536" descent="-512" />
<missing-glyph horiz-adv-x="569" />
<glyph horiz-adv-x="0" />
<glyph unicode="&#xd;" horiz-adv-x="716" />
<glyph horiz-adv-x="0" />
<glyph horiz-adv-x="0" />
<glyph unicode="&#xa;" horiz-adv-x="0" />
<glyph horiz-adv-x="0" />
<glyph unicode=" "  horiz-adv-x="569" />
<glyph unicode="&#x09;" horiz-adv-x="569" />
<glyph unicode="&#xa0;" horiz-adv-x="569" />
<glyph unicode="!" horiz-adv-x="860" d="M291 121q0 59 42 100t101 41t100 -41t41 -100t-40.5 -101.5t-100.5 -42.5q-59 0 -101 42t-42 102zM297 1407h272l-26 -1057h-224z" />
<glyph unicode="&#x22;" horiz-adv-x="1259" d="M326 889v543h237v-543h-237zM690 893v543h244v-543h-244z" />
<glyph unicode="#" horiz-adv-x="1314" d="M119 418v164h221l39 262h-195v164h222l61 422h195l-62 -422h225l62 422h192l-61 -422h178v-164h-205l-37 -262h179v-164h-203l-64 -422h-192l63 422h-225l-66 -422h-194l65 422h-198zM537 582h223l39 262h-226z" />
<glyph unicode="$" horiz-adv-x="1286" d="M125 199l106 231q78 -82 172.5 -133t186.5 -66v373q-74 25 -146.5 55.5t-130 78.5t-92.5 121t-35 181q0 100 33 174t88 124.5t128 78t155 35.5v141h96v-137q115 -4 223.5 -44t196.5 -105l-100 -240q-78 57 -161 91t-159 42v-330q8 -2 14.5 -4t12.5 -4q76 -25 153.5 -55.5 t141 -80.5t103.5 -125.5t40 -190.5q0 -106 -38 -185.5t-102.5 -132.5t-148.5 -80.5t-176 -31.5v-191h-96v191q-129 10 -251 65t-214 154zM461 1057q0 -55 35.5 -90t93.5 -60v291q-59 -10 -94 -45t-35 -96zM686 229q80 6 131 44t53 112q2 76 -51 117t-133 69v-342z" />
<glyph unicode="%" horiz-adv-x="1949" d="M205 1010q0 119 33.5 194.5t84 119.5t109 60.5t105.5 16.5q49 0 107 -16.5t107.5 -60.5t83 -120t33.5 -194q0 -119 -33.5 -196t-83 -121t-107.5 -60.5t-107 -16.5q-47 0 -105.5 16.5t-109 60.5t-84 121t-33.5 196zM412 1010q0 -113 36 -156t89 -43t89 43t36 156 q0 109 -36 149.5t-89 40.5t-89 -41t-36 -149zM430 -45l885 1520h168l-885 -1520h-168zM1063 436q0 119 33.5 195t84 120t108 60t104.5 16q49 0 107.5 -16t107.5 -60t82.5 -120t33.5 -195t-33.5 -195.5t-82.5 -120.5t-107.5 -60.5t-107.5 -16.5q-47 0 -104.5 16.5t-108 60.5 t-84 120.5t-33.5 195.5zM1268 436q0 -113 36 -155.5t89 -42.5t89 43t36 155q0 109 -36 150t-89 41t-89 -41t-36 -150z" />
<glyph unicode="&#x26;" horiz-adv-x="1417" d="M123 406q0 74 28.5 133t70.5 107t90 83t89 57q-18 25 -38.5 55.5t-37 65.5t-27.5 73t-11 75q0 92 33.5 159.5t89 111.5t125 65.5t141.5 21.5t139.5 -23.5t120.5 -67.5t87 -106.5t36 -140.5q2 -66 -42 -130t-97 -116q-63 -59 -144 -114l240 -271q43 59 66.5 115.5 t35.5 104.5q14 53 19 104h243q-8 -45 -22.5 -103.5t-39 -124t-59 -136t-81.5 -140.5l231 -264h-305l-105 109q-31 -16 -75.5 -39t-102 -43.5t-122 -35t-132.5 -14.5q-84 0 -163.5 34t-142 91.5t-100.5 135t-38 168.5zM381 387q0 -66 56.5 -116t154.5 -50q55 0 119.5 16.5 t136.5 59.5l-279 319q-98 -47 -143 -108.5t-45 -120.5zM514 1057q0 -16 15.5 -45t33.5 -58q23 -35 51 -69q23 10 59 27.5t70.5 42t58 53t21.5 61.5q-4 61 -48 90t-97 29q-31 0 -61.5 -9.5t-53 -25.5t-37 -39.5t-12.5 -54.5v-2z" />
<glyph unicode="'" horiz-adv-x="624" d="M195 893v539h235v-539h-235z" />
<glyph unicode="(" horiz-adv-x="770" d="M82 629q-2 240 85 473t257 446h315q-197 -215 -280.5 -451.5t-79.5 -463.5q4 -225 91 -458.5t286 -450.5h-303l-23 14q-176 203 -262 429t-86 462z" />
<glyph unicode=")" horiz-adv-x="770" d="M14 1548h303l23 -14q176 -203 262 -429t86 -462q2 -240 -85 -473t-257 -446h-315q98 106 167.5 220.5t112.5 230.5t62.5 232.5t17.5 231.5q-4 225 -91 458.5t-286 450.5z" />
<glyph unicode="*" horiz-adv-x="1193" d="M170 1057l68 192l270 -102l-16 285h231l-18 -287l268 106q18 -53 34.5 -98t32.5 -98l-266 -97l166 -221q-47 -41 -84 -75.5t-80 -75.5l-172 260l-153 -258l-179 149l172 219l-157 56q-29 10 -59.5 22.5t-57.5 22.5z" />
<glyph unicode="+" horiz-adv-x="1228" d="M94 412v213h414v411h213v-411h414v-213h-414v-412h-213v412h-414z" />
<glyph unicode="," horiz-adv-x="659" d="M41 -246l139 539h309l-198 -539h-250z" />
<glyph unicode="-" horiz-adv-x="681" d="M72 438v226h538v-226h-538zM72 438v226h538v-226h-538z" />
<glyph unicode="." horiz-adv-x="569" d="M141 0v287h287v-287h-287z" />
<glyph unicode="/" horiz-adv-x="798" d="M43 -23l502 1475h213l-502 -1475h-213z" />
<glyph unicode="0" horiz-adv-x="1173" d="M57 715q0 223 42 366.5t114 226.5t168 114.5t207 31.5t207 -31.5t168.5 -114.5t114.5 -226.5t42 -366.5t-42 -366.5t-114.5 -225.5t-169 -114t-206.5 -32q-111 0 -207 32t-168 114t-114 225.5t-42 366.5zM356 715q0 -256 49.5 -385t182.5 -129t182 129t49 385 q0 254 -50 383t-181 129q-133 0 -182.5 -129t-49.5 -383z" />
<glyph unicode="1" horiz-adv-x="999" d="M55 1112l369 320h225v-1432h-276v1040l-183 -159zM127 0v229h768l2 -229h-770z" />
<glyph unicode="2" horiz-adv-x="1327" d="M121 1130q31 74 84 133.5t120.5 101.5t146.5 65.5t161 23.5q98 0 189 -30.5t162 -89t114 -143.5t43 -194q0 -92 -38 -174t-110 -149q-66 -59 -145.5 -103.5t-157.5 -90.5t-143.5 -104.5t-102.5 -146.5h711v-229h-1018v133q0 231 166 395v-2q61 63 144 113.5t157 91.5 q121 70 179.5 128.5t58.5 137.5q0 43 -16.5 84t-44 74t-65.5 52.5t-83 19.5q-70 0 -122 -28t-87 -61.5t-51.5 -61t-14.5 -29.5z" />
<glyph unicode="3" horiz-adv-x="1169" d="M-2 78l70 229q20 -10 56 -28.5t79 -35t93 -28.5t103 -12q63 0 121 18.5t98.5 50t65.5 73.5t25 89q0 53 -32 93t-81 65.5t-108.5 39t-114.5 13.5h-135l30 227h97q43 2 93 11.5t95 29t74.5 51t29.5 78.5q0 100 -70.5 143.5t-176.5 43.5q-43 0 -87 -8.5t-84 -21.5t-74 -28.5 t-56 -27.5l-66 205q33 20 80 38.5t104.5 34t123 24.5t132.5 9q115 0 203 -27.5t148.5 -77t91 -114t30.5 -137.5q0 -115 -63.5 -199t-196.5 -131v-4q63 -12 119.5 -42t99.5 -74t68 -103.5t25 -128.5q0 -96 -41 -176t-116 -138.5t-183.5 -91.5t-243.5 -33q-141 0 -251 30 t-175 71z" />
<glyph unicode="4" horiz-adv-x="1142" d="M23 291v248l532 893h367v-914l180 2l-6 -229h-174v-291h-285v291h-614zM281 518h356v612z" />
<glyph unicode="5" horiz-adv-x="1200" d="M135 186l176 152q59 -66 132 -101.5t132 -35.5q96 0 145.5 42t72.5 93q25 59 24 137q0 70 -22 123q-20 47 -65.5 86t-135.5 39q-66 0 -109 -24.5t-68.5 -54.5t-36.5 -56l-11 -25l-232 98l37 773h852v-230l-586 2q-6 -84 -12 -149q-4 -55 -9 -101.5t-3 -46.5l14 7 q14 6 40 15t60.5 16t73.5 7q104 0 198.5 -32.5t164 -94t110.5 -150.5t41 -202q0 -111 -43 -202t-114.5 -156.5t-167 -101.5t-201.5 -36q-74 0 -141.5 18.5t-126 49.5t-107.5 68t-82 73z" />
<glyph unicode="6" horiz-adv-x="1138" d="M90 743q10 162 50 293t114 224.5t183.5 143.5t258.5 50q72 0 125 -8t88 -19q41 -10 72 -24l-37 -229q-88 39 -190.5 51t-190.5 -26t-146.5 -136t-58.5 -279q27 39 70 72q37 27 94.5 49.5t136.5 22.5q74 0 143.5 -27t124 -79t88.5 -132t34 -186q0 -115 -27 -211t-81 -166 t-138 -110t-197 -40q-160 0 -261 49.5t-157.5 146.5t-77 239.5t-20.5 330.5zM391 449q0 -117 44 -182.5t134 -65.5q92 0 139.5 65.5t47.5 182.5q0 121 -47 187t-140 66q-90 0 -134 -66.5t-44 -186.5z" />
<glyph unicode="7" horiz-adv-x="1116" d="M100 1204v228h924v-226l-520 -1206h-293l500 1204h-611z" />
<glyph unicode="8" horiz-adv-x="1208" d="M86 422q0 59 18.5 107.5t49 88t71.5 71.5t88 59q-74 49 -126 120.5t-52 169.5q0 109 35 181.5t88 118.5t115.5 71t116 34t90 10t38.5 1q4 0 42 -1t90.5 -12t113 -35t112.5 -70t86 -118.5t34 -179.5q0 -94 -56.5 -165.5t-130.5 -120.5q45 -25 87 -57.5t74 -72.5 t50.5 -90.5t18.5 -109.5q0 -84 -22.5 -147.5t-59.5 -110.5t-84 -79t-96 -52q-115 -49 -261 -56q-150 6 -266 56q-49 20 -97 52t-85 79t-59.5 110.5t-22.5 147.5zM383 385q0 -39 18.5 -75t51 -64.5t75.5 -46t90 -17.5q45 0 87.5 19.5t75 50.5t52 69.5t19.5 75.5 q0 43 -26.5 84t-66.5 75t-86 57.5t-83 33.5q-41 -12 -78 -39.5t-65.5 -63.5t-46 -78t-17.5 -81zM428 1063q0 -74 63.5 -125t149.5 -78q29 8 58.5 26.5t54 43t40 55.5t15.5 66q0 33 -13.5 67.5t-38 64t-61.5 48t-84 18.5q-43 0 -76.5 -16t-58 -43t-37 -60.5t-12.5 -66.5z" />
<glyph unicode="9" horiz-adv-x="1138" d="M90 928q0 113 26.5 210t81 166.5t137 109.5t197.5 40q160 0 261.5 -49t158 -146.5t77 -241t20.5 -329.5q-10 -162 -50.5 -293t-114 -224t-183 -143.5t-259.5 -50.5q-72 0 -125 7.5t-88 17.5q-41 10 -71 27l37 229q88 -39 190 -51t190.5 25.5t146.5 136t58 278.5 q-29 -41 -71 -72q-37 -29 -93.5 -50t-136.5 -21q-74 0 -143.5 26.5t-123.5 79t-88 132t-34 186.5zM383 983q0 -121 47 -187.5t139 -66.5q90 0 134.5 66.5t44.5 187.5q0 117 -44.5 182.5t-134.5 65.5q-92 0 -139 -65.5t-47 -182.5z" />
<glyph unicode=":" horiz-adv-x="628" d="M170 0v283h289v-283h-289zM170 780v285h289v-285h-289z" />
<glyph unicode=";" horiz-adv-x="573" d="M-45 -324l139 539h309l-198 -539h-250zM113 795v286h290v-286h-290z" />
<glyph unicode="&#x3c;" horiz-adv-x="1228" d="M94 459v176l1041 446v-209l-764 -325l764 -326v-209z" />
<glyph unicode="=" horiz-adv-x="1228" d="M94 188v213h1041v-213h-1041zM94 635v213h1041v-213h-1041z" />
<glyph unicode="&#x3e;" horiz-adv-x="1228" d="M94 12v209l764 326l-764 325v209l1041 -446v-176z" />
<glyph unicode="?" horiz-adv-x="1007" d="M80 1303q29 16 74 38.5t101 42t119.5 34t129.5 14.5q80 0 155.5 -26t141.5 -91q33 -35 59 -80q23 -39 41.5 -94t18.5 -125q0 -74 -24 -133.5t-58.5 -111.5t-76.5 -99t-77 -96.5t-58.5 -102.5t-23.5 -117h-258q0 88 22.5 157t55.5 124t71.5 101t71.5 91t55.5 92.5 t22.5 106.5q0 31 -9 60.5t-28.5 53t-51.5 38t-77 14.5q-14 0 -33.5 -2t-42.5 -6q-31 -4 -76.5 -19.5t-88.5 -33.5q-51 -23 -105 -48zM330 121q0 59 42 100t101 41t100 -41t41 -100t-41 -101.5t-100 -42.5t-101 42t-42 102z" />
<glyph unicode="@" horiz-adv-x="1581" d="M76 721q0 154 59.5 289t160.5 235.5t237 158.5t290 58q156 0 293 -58t239.5 -158.5t161 -236t58.5 -288.5q0 -66 -19.5 -151t-62.5 -160.5t-112.5 -129t-170.5 -53.5q-47 0 -86 13.5t-69.5 35t-52 47t-35.5 50.5q-39 -35 -86 -57.5t-105 -26.5q-98 -8 -169.5 17.5 t-118 74.5t-68 115.5t-21.5 142.5q0 86 29 175t83 162t132 122t174 57h-2q74 10 143.5 -25.5t116.5 -97.5l43 51l119 -30l-117 -582q14 -41 66 -41q31 0 65.5 17.5t64.5 52.5t48 90t18 133q0 117 -44 217t-119.5 176t-177 119t-216.5 43t-214 -43t-174 -119t-118 -176 t-43 -217t43 -217t118 -176t174.5 -119t213.5 -43q47 0 125 8t154 35l-68 -199q-27 -10 -61 -18q-29 -6 -68 -11.5t-84 -5.5q-154 0 -290 58.5t-237 159t-160.5 236.5t-59.5 290zM592 635q4 -72 53 -113t121 -35q53 6 95 40t69.5 82t42 104.5t12.5 105.5q-8 59 -56 98 t-108 39q-66 -2 -110.5 -34.5t-72.5 -80.5t-39 -103.5t-7 -102.5z" />
<glyph unicode="A" horiz-adv-x="1447" d="M18 0l527 1432h358l527 -1432h-312l-123 338h-542l-123 -338h-312zM547 596h354l-19 51q-18 51 -45.5 127t-58 160t-53.5 145l-90 -241q-16 -45 -32.5 -89t-29 -78t-19.5 -55z" />
<glyph unicode="B" d="M166 0v1432h444q104 0 197.5 -20.5t163 -68t111.5 -125t44 -190.5v-2q0 -100 -45 -157.5t-98 -86.5q-63 -35 -141 -45q92 -10 164 -47q61 -31 112 -91t51 -167v-4q0 -119 -50 -201t-132 -132t-188.5 -72.5t-216.5 -22.5h-416zM455 227h194q45 0 87 11.5t75 36t51.5 63.5 t18.5 94t-19.5 95t-53.5 64.5t-79 36t-94 11.5h-180v-412zM455 852h182q37 0 74 9t65.5 30.5t46 55.5t17.5 81q0 49 -17.5 83t-46 54.5t-68.5 29.5t-83 9h-170v-352z" />
<glyph unicode="C" horiz-adv-x="1204" d="M96 715q0 147 31 259.5t84 194.5t121.5 136.5t144.5 87t153.5 46t147.5 13.5q78 0 146.5 -11t122.5 -26q61 -16 112 -35v-223q-82 31 -171 49q-77 16 -150 16h-24q-85 -3 -160.5 -30t-133 -86t-91.5 -155.5t-34 -235.5q0 -141 34 -237.5t91.5 -157t133 -87t160.5 -27.5h8 q81 0 166 20q89 20 171 55v-226q-51 -23 -112 -39q-53 -16 -122 -27.5t-147 -11.5q-70 0 -147.5 13.5t-153.5 45.5t-144.5 86t-121.5 136t-84 194.5t-31 262.5z" />
<glyph unicode="D" horiz-adv-x="1478" d="M166 0v1432h530q158 0 285 -54.5t216 -151t137 -227.5t48 -284q0 -154 -48 -285t-137 -226t-216 -149.5t-285 -54.5h-530zM457 227h217q96 0 172 39t128 104.5t78.5 154.5t26.5 190q0 100 -26.5 190t-78.5 155.5t-128 104.5t-172 39h-217v-977z" />
<glyph unicode="E" horiz-adv-x="1134" d="M166 0v1432h844l-47 -228h-510v-350h510v-227h-510v-400h557v-227h-844z" />
<glyph unicode="F" horiz-adv-x="1073" d="M166 0v1432h844l-47 -228h-510v-350h510v-227h-510v-627h-287z" />
<glyph unicode="G" horiz-adv-x="1474" d="M96 717q0 227 65.5 371.5t174 225.5t247 110.5t285.5 29.5q70 0 144.5 -10t137 -22.5t102.5 -22.5l40 -10v-244l-38 12q-37 12 -97.5 25.5t-136.5 26t-152 12.5q-106 0 -193 -25t-149.5 -83t-96.5 -155.5t-34 -240.5q0 -129 30 -222.5t81 -153.5t121.5 -89t150.5 -29 q84 0 139.5 7.5t90.5 17.5q39 10 63 26v314h-309v231h577v-715q-53 -29 -124.5 -51t-149.5 -39.5t-153.5 -27t-133.5 -9.5q-70 0 -147.5 13.5t-153.5 45.5t-144.5 86t-121.5 136t-84 195.5t-31 263.5z" />
<glyph unicode="H" horiz-adv-x="1470" d="M166 0v1432h285v-580h567v580h287v-1432h-287v625h-567v-625h-285z" />
<glyph unicode="I" horiz-adv-x="567" d="M141 0v1432h285v-1432h-285z" />
<glyph unicode="J" horiz-adv-x="772" d="M45 -8v219l23 -3q22 -3 56 -4h11q29 0 62 4q39 5 72.5 21.5t56 47t22.5 81.5v1074h283v-1039q0 -135 -45 -217t-111.5 -126t-142.5 -58.5t-137 -14.5q-59 0 -103 7q-25 4 -47 8z" />
<glyph unicode="K" horiz-adv-x="1335" d="M166 0v1432h272v-603h144l393 603h323l-493 -719l510 -713h-320l-415 602h-142v-602h-272z" />
<glyph unicode="L" horiz-adv-x="1040" d="M166 0v1432h285v-1205h573v-227h-858z" />
<glyph unicode="M" horiz-adv-x="1933" d="M166 0v1432h434l367 -1076l366 1076h434v-1432h-272v1157l-399 -1157h-258l-400 1157v-1157h-272z" />
<glyph unicode="N" horiz-adv-x="1478" d="M152 0v1432h376l527 -1074v1074h272v-1432h-377l-526 1075v-1075h-272z" />
<glyph unicode="O" horiz-adv-x="1591" d="M96 713q0 223 68.5 367.5t173 227.5t227.5 114.5t232 31.5t231.5 -31.5t226 -114.5t172 -227.5t68.5 -367.5q0 -225 -68.5 -368.5t-172 -224.5t-226.5 -112t-231 -31q-109 0 -232 31t-227.5 112t-173 224t-68.5 369zM395 713q0 -133 30 -229.5t84 -159t128 -93t160 -30.5 t159.5 30.5t127 93t83 160t29.5 230.5q0 129 -29.5 226t-83 160.5t-127 95.5t-159.5 32t-160 -32t-128 -96.5t-84 -160.5t-30 -227z" />
<glyph unicode="P" horiz-adv-x="1134" d="M141 0v1432h408q113 0 212 -23t174 -75t118 -137t43 -212q0 -123 -44 -208t-116 -137t-166 -74.5t-192 -22.5h-152v-543h-285zM428 770h119q55 0 101 11.5t80 37t53.5 67.5t19.5 101q0 123 -72 170t-182 47h-119v-434z" />
<glyph unicode="Q" horiz-adv-x="1593" d="M96 715q0 147 32 259.5t87 194.5t126 136.5t148.5 87t156.5 46t151 13.5q109 0 231.5 -31.5t227 -114.5t173 -225.5t68.5 -365.5q0 -137 -26.5 -243.5t-72.5 -186.5t-108.5 -136.5t-132.5 -93.5l311 -313h-338l-219 240q-20 -2 -43 -2q-18 -2 -37.5 -2.5t-33.5 -0.5 q-72 0 -151 13.5t-156.5 45.5t-149.5 86t-125 136t-86 194.5t-33 262.5zM395 715q0 -133 31 -229.5t84 -160t127 -94t160 -30.5q88 0 160.5 30.5t126 94t83 161t29.5 230.5q0 129 -29.5 225t-83 158.5t-126 94.5t-160.5 32q-86 0 -160 -32t-127 -95.5t-84 -159.5t-31 -225z " />
<glyph unicode="R" horiz-adv-x="1230" d="M141 0v1432h408q111 0 210 -18.5t174 -66t118 -128t43 -207.5q0 -66 -19.5 -113t-49.5 -81t-64.5 -55.5t-64.5 -33.5t-50 -17l-19 -5q51 0 86 -24t56.5 -52.5t30.5 -52.5l8 -23l182 -555h-322l-151 481q-12 29 -29 51q-16 18 -37.5 35t-56.5 17h-168v-584h-285zM426 821 h117q49 0 95 7.5t82 28t58.5 58t22.5 97.5q0 59 -19.5 97t-54.5 59.5t-82 28.5t-102 7h-117v-383z" />
<glyph unicode="S" horiz-adv-x="1239" d="M109 199l106 231q92 -96 207 -149.5t219 -53.5q92 0 154.5 38t64.5 120v8q0 42 -20 72q-22 33 -59.5 57.5t-86.5 43t-102 34.5q-76 25 -151.5 55.5t-136 78.5t-97.5 122t-37 184q0 111 41 190t107.5 129t153.5 73.5t179 23.5q121 0 237 -40t208 -109l-101 -240 q-86 63 -180 99t-174 36q-88 0 -142.5 -33.5t-54.5 -111.5q0 -41 21.5 -70t56.5 -51.5t82 -39.5t98 -34q76 -25 154 -55.5t141.5 -80.5t103.5 -126t40 -190q0 -113 -43 -195t-114 -134t-162 -78t-189 -26q-143 0 -282.5 55.5t-241.5 166.5z" />
<glyph unicode="T" horiz-adv-x="1138" d="M16 1208v224h1106v-224h-409v-1208h-285v1208h-412z" />
<glyph unicode="U" horiz-adv-x="1480" d="M156 522v910h286v-943q0 -57 12.5 -109t46.5 -91t91 -61.5t149 -22.5t149.5 24.5t90.5 65.5t45 94t12 111v932h287v-910q0 -115 -40 -214t-115.5 -173t-183.5 -116t-245 -42q-135 0 -243.5 42t-184 116t-116.5 173.5t-41 213.5z" />
<glyph unicode="V" horiz-adv-x="1370" d="M20 1432h289l381 -1125l371 1125h289l-482 -1432h-356z" />
<glyph unicode="W" horiz-adv-x="2056" d="M20 1432h283l236 -1125l311 1125h356l312 -1125l237 1125h281l-340 -1432h-375l-293 1143l-293 -1143h-375z" />
<glyph unicode="X" horiz-adv-x="1366" d="M20 0l472 743l-424 689h329l297 -514l299 514h330l-446 -689l469 -743h-330l-322 557l-344 -557h-330z" />
<glyph unicode="Y" horiz-adv-x="1343" d="M23 1397h294l355 -586l352 586h297l-518 -844v-553h-279v553z" />
<glyph unicode="Z" horiz-adv-x="1159" d="M74 0l2 227l680 981h-637v224h954v-224l-682 -981h694l5 -227h-1016z" />
<glyph unicode="[" horiz-adv-x="696" d="M150 -260v1796h456v-238h-198v-1318h198v-240h-456z" />
<glyph unicode="\" horiz-adv-x="583" d="M-72 1454h219l500 -1481h-215z" />
<glyph unicode="]" horiz-adv-x="696" d="M90 -23h199v1319h-199v240h457v-1796h-457v237z" />
<glyph unicode="^" horiz-adv-x="1310" d="M123 584l430 848h188l447 -848h-266l-273 542l-260 -542h-266z" />
<glyph unicode="_" horiz-adv-x="1024" d="M0 -154h1024v-102h-1024v102z" />
<glyph unicode="`" horiz-adv-x="714" d="M14 1481h320l231 -357h-225z" />
<glyph unicode="a" horiz-adv-x="1101" d="M49 283q-1 11 -1 21q0 67 22 121q26 62 74.5 107.5t116 73t147.5 37.5q76 10 166 10t161 -4v33q0 88 -39 132t-97 58q-33 8 -69 7q-28 -1 -59 -5q-70 -10 -133.5 -29.5t-111.5 -41t-60 -31.5v207q2 2 37 17.5t88 34t119.5 33.5t134.5 15t145.5 -21.5t145 -69.5 t110.5 -124q41 -73 41 -174v-10v-680h-201l-6 24q-6 25 -13 56t-13 54.5t-6 21.5q-29 -51 -76 -90q-41 -35 -105.5 -62t-158.5 -27q-66 0 -129.5 19.5t-113.5 57.5t-82 95.5t-34 133.5zM309 301q0 -68 50.5 -98.5t123.5 -30.5q63 0 111.5 25.5t81.5 68.5q35 45 46 100.5 t11 116.5h-119q-47 0 -100 -6t-98 -24.5t-76 -54.5t-31 -97z" />
<glyph unicode="b" d="M141 0v1536h275v-616q35 43 82 79q41 29 100 54.5t139 25.5q121 0 205 -46t136 -122.5t76 -177t24 -211.5t-24 -210t-76 -172.5t-136 -118t-205 -44.5q-88 0 -149.5 26t-102.5 56q-47 37 -77 82l-54 -141h-213zM416 522q0 -170 68.5 -249.5t166.5 -79.5q49 0 92 19t75 60 t51.5 103.5t19.5 146.5t-19.5 148.5t-51.5 107.5t-75 65.5t-92 22.5q-98 0 -166.5 -88t-68.5 -256z" />
<glyph unicode="c" horiz-adv-x="962" d="M74 528q0 174 55 283t138 168t179.5 79.5t178.5 20.5q63 0 112 -8t84 -18q39 -12 72 -27v-209q-80 33 -173 44q-27 3 -52 3q-64 0 -121 -20q-80 -28 -133.5 -103t-53.5 -213q0 -145 53.5 -218.5t133.5 -98.5q51 -16 106 -16q32 -1 67 5q93 14 173 50v-211 q-31 -18 -72 -31q-35 -12 -85 -21.5t-113 -9.5q-80 0 -176.5 20.5t-179.5 80t-138 167t-55 283.5z" />
<glyph unicode="d" d="M74 522q0 111 23.5 211.5t75.5 177t136 122.5t205 46q78 0 138.5 -25.5t101.5 -54.5q47 -37 82 -79v616h274v-1536h-213l-53 141q-31 -45 -78 -82q-41 -31 -103.5 -56.5t-148.5 -25.5q-121 0 -205 44.5t-136 118t-75.5 173t-23.5 209.5zM362 522q0 -84 19.5 -146.5 t51.5 -103.5t75 -60t92 -19q98 0 167 79.5t69 249.5q0 168 -69 256t-167 88q-49 0 -92 -22.5t-75 -65.5t-51.5 -107.5t-19.5 -148.5z" />
<glyph unicode="e" horiz-adv-x="1136" d="M74 528q0 98 26.5 196.5t85 177.5t152.5 128t229 49q143 0 238.5 -49t153 -128t81 -177t23.5 -197v-92h-725q0 -111 79 -182.5t216 -71.5q78 0 143.5 16.5t112.5 37.5q53 23 98 53v-230q0 -2 -26.5 -14t-71.5 -27.5t-106.5 -28t-131.5 -12.5q-170 0 -280.5 45.5t-177 121 t-93 175t-26.5 209.5zM338 631h465q0 35 -9.5 77t-35 78.5t-71.5 61t-120 24.5q-63 0 -107 -24.5t-71 -61t-39 -78.5t-12 -77z" />
<glyph unicode="f" horiz-adv-x="800" d="M39 854v201h203v188q0 106 40 170t100 96.5t130 42.5q59 9 110 9h19q59 -2 99 -9l40 -8l-28 -227q-16 2 -37 6q-16 2 -39.5 4t-48.5 2q-41 0 -62.5 -13t-32 -32.5t-12.5 -44.5t-2 -47v-137h238l-31 -201h-207v-854h-276v854h-203z" />
<glyph unicode="g" d="M74 545q0 152 45 254t112.5 164.5t146.5 89t146 26.5q80 0 139.5 -23.5t97.5 -52t57 -51.5l20 -24l57 127h215v-1008q0 -100 -31.5 -189t-100.5 -158t-175.5 -111t-255.5 -44q-80 0 -145.5 11.5t-112.5 25.5q-55 16 -101 39l21 219q45 -23 98 -41q47 -16 107.5 -27.5 t132.5 -11.5q119 0 179 52.5t85 122t25 136v97.5l-16 -26q-17 -25 -54 -57t-96.5 -58.5t-145.5 -26.5q-92 0 -174 27.5t-143.5 92t-97 169t-35.5 256.5zM360 539q0 -166 66 -246t172 -80t172 80t66 246t-65.5 246.5t-172.5 80.5q-106 0 -172 -80.5t-66 -246.5z" />
<glyph unicode="h" d="M141 0v1536h260v-625q20 23 45 52.5t63 55t96.5 43t146.5 17.5q94 0 161.5 -31.5t111.5 -87t64.5 -131t20.5 -163.5v-666h-274v573q0 152 -41 223.5t-142 71.5q-121 0 -179 -100t-58 -264v-504h-275z" />
<glyph unicode="i" horiz-adv-x="591" d="M141 1386q0 63 45 107.5t111 44.5q63 0 108.5 -44.5t45.5 -107.5q0 -66 -45.5 -110.5t-108.5 -44.5q-66 0 -111 45t-45 110zM160 0v1055h276v-1055h-276z" />
<glyph unicode="j" horiz-adv-x="616" d="M-31 -199q21 -2 41 -2q33 0 62 6q39 10 70.5 37t31.5 88v1125h277v-1149q0 -61 -12.5 -108.5t-32 -82t-44 -59.5t-51.5 -39q-61 -37 -137 -41q-70 0 -108.5 3t-61.5 7q-25 6 -35 13v202zM160 1386q0 66 44 110t109 44q63 0 109.5 -44t46.5 -110q0 -63 -46 -109t-110 -46 q-66 0 -109.5 46t-43.5 109z" />
<glyph unicode="k" horiz-adv-x="1093" d="M147 0v1536h275v-905h59l21 31q22 32 54 79t69 101.5t67.5 101.5t51.5 79l22 32h311l-377 -541q43 -59 92.5 -124.5t99.5 -133.5t98 -133.5t91 -122.5h-315l-283 401h-61v-401h-275z" />
<glyph unicode="l" horiz-adv-x="624" d="M147 322v1214h277v-1241q2 -35 18.5 -55.5t40 -29.5t53 -10t62.5 3v-211q-29 -6 -50.5 -9t-37.5 -6q-18 -2 -31 0q-78 0 -139 6.5t-104 40t-66 102.5t-23 196z" />
<glyph unicode="m" horiz-adv-x="1822" d="M137 0v1055h207l45 -162l19 29q18 28 55 63t93 64.5t134 29.5q102 0 166 -28.5t100 -63.5q43 -41 64 -92q4 6 22.5 34.5t57.5 62.5t100.5 60.5t149.5 26.5q111 0 177 -39t101 -102.5t46.5 -145t11.5 -169.5v-623h-275v2l-2 629q0 51 -6 94t-23.5 73.5t-48.5 48t-78 17.5 q-61 0 -102 -28.5t-63.5 -72.5t-31.5 -95.5t-9 -96.5v-571h-271v2h-2v629q0 51 -7 94t-25.5 74.5t-51.5 49t-84 17.5q-57 0 -94 -28.5t-59.5 -72.5t-31.5 -96.5t-9 -97.5v-571h-275z" />
<glyph unicode="n" horiz-adv-x="1243" d="M156 0v1055h204l56 -144q20 23 44.5 52.5t62.5 55t96.5 43t146.5 17.5q94 0 161.5 -31.5t111.5 -87t64.5 -131t20.5 -163.5v-666h-274v573q0 152 -41 223.5t-141 71.5q-121 0 -179.5 -100t-58.5 -264v-504h-274z" />
<glyph unicode="o" horiz-adv-x="1253" d="M74 528q0 166 55 272.5t138 168t179.5 86t178.5 24.5t178 -24.5t180 -86t140.5 -168t56.5 -272.5t-56.5 -272t-140.5 -167.5t-180 -86.5t-178 -25t-178.5 25t-179.5 86.5t-138 167.5t-55 272zM362 528q0 -82 20.5 -146.5t55.5 -108.5t83.5 -67.5t103.5 -23.5 q115 0 191.5 90t76.5 256t-77 255t-191 89q-111 0 -187 -89t-76 -255z" />
<glyph unicode="p" d="M147 -424v1479h213l54 -140q31 45 78 82q41 31 102 56.5t149 25.5q121 0 205 -44t136.5 -117.5t76 -173t23.5 -209.5q0 -111 -23.5 -212.5t-76 -178t-136.5 -122t-205 -45.5q-80 0 -139 25t-100 55q-47 35 -82 80v-561h-275zM422 535q0 -168 68.5 -256.5t166.5 -88.5 q49 0 92.5 23t75 66t51 107.5t19.5 148.5t-19.5 146t-51 103t-75 60.5t-92.5 19.5q-98 0 -166.5 -79.5t-68.5 -249.5z" />
<glyph unicode="q" d="M74 535q0 111 23.5 210t75.5 172.5t136 117.5t205 44q86 0 148.5 -25.5t103.5 -56.5q47 -37 78 -82l53 140h213v-1479h-274v561q-35 -45 -82 -80q-41 -31 -101.5 -55.5t-138.5 -24.5q-121 0 -205 45.5t-136 122t-75.5 178t-23.5 212.5zM362 535q0 -84 19.5 -148.5 t51.5 -107.5t75 -66t92 -23q98 0 167 88.5t69 256.5q0 170 -69 249.5t-167 79.5q-49 0 -92 -19.5t-75 -60.5t-51.5 -103.5t-19.5 -145.5z" />
<glyph unicode="r" horiz-adv-x="819" d="M147 0v1044h203l43 -229l5 23q5 24 20.5 58t44.5 72t73 66.5t106 40.5q27 5 58 5q41 0 91 -9v-280q-47 10 -85 11h-25q-24 0 -46 -1q-66 -4 -108 -28.5t-64.5 -64.5t-30.5 -90.5t-8 -103.5v-514h-277z" />
<glyph unicode="s" horiz-adv-x="950" d="M70 158l90 200q72 -78 153.5 -117.5t149.5 -39.5q57 0 110.5 20.5t55.5 69.5q0 27 -19.5 47t-50.5 35.5t-67.5 29t-71.5 25.5q-53 18 -107.5 42t-98.5 60.5t-71.5 92t-27.5 141.5q0 84 29.5 144.5t78.5 98t113.5 56t134.5 18.5q41 0 90 -8t99.5 -24.5t98.5 -39t85 -53.5 l-92 -206q-70 53 -152 79.5t-137 26.5q-53 0 -84 -18.5t-31 -65.5q0 -23 19.5 -40t50.5 -31.5t66.5 -25.5t68.5 -24q53 -18 109.5 -40.5t102.5 -61.5t74.5 -96.5t28.5 -145.5q0 -86 -31.5 -148.5t-84 -102.5t-120 -59.5t-138.5 -19.5q-51 0 -109.5 11.5t-115 35t-108.5 57.5 t-91 77z" />
<glyph unicode="t" horiz-adv-x="823" d="M0 854v201h201l2 231l270 68v-299h248v-201h-244v-518q0 -27 7.5 -52.5t20.5 -46t30.5 -34t35.5 -13.5q59 0 111 11q25 6 49 12l2 -213q-37 -6 -78 -12q-35 -4 -82 -7.5t-100 -3.5q-78 8 -137 48q-51 35 -93 103.5t-42 193.5v532h-201z" />
<glyph unicode="u" d="M141 393v662h275v-570q0 -152 41 -223.5t141 -71.5q121 0 179.5 100.5t58.5 264.5v500h274v-1055h-205l-55 147q-20 -23 -45 -52t-62.5 -55t-96 -43t-146.5 -17q-94 0 -162 30.5t-112 86t-64.5 131t-20.5 165.5z" />
<glyph unicode="v" horiz-adv-x="1138" d="M25 1055h270l276 -768l273 768h270l-389 -1055h-309zM25 1055h270l276 -768l273 768h270l-389 -1055h-309z" />
<glyph unicode="w" horiz-adv-x="1830" d="M23 1044h268l260 -757l215 768h309l242 -768l15 56q16 56 39.5 140t51 182.5t51 182.5t40.5 140l16 56h268l-321 -1044h-326l-229 807l-228 -807h-311z" />
<glyph unicode="x" horiz-adv-x="1138" d="M18 0l351 551l-346 504h327l207 -338l8 14t22.5 38t33 54.5t36.5 61.5q45 74 103 170h293l-316 -504l383 -551h-338l-225 395l-10 -17q-10 -18 -25.5 -45.5t-36 -63.5t-41.5 -72q-51 -86 -112 -197h-314z" />
<glyph unicode="y" horiz-adv-x="1140" d="M23 1055h303l258 -768l233 768h301l-397 -1110v2q-2 -4 -14.5 -36t-39 -77t-67.5 -95t-99.5 -93t-135 -72t-172.5 -29v236q59 0 102 25.5t72 56.5q33 37 55 84z" />
<glyph unicode="z" horiz-adv-x="1024" d="M74 0v225l532 615h-510v215h836v-228l-522 -612h540l-45 -215h-831z" />
<glyph unicode="{" horiz-adv-x="679" d="M98 549v86v90q117 0 133 16q10 10 14.5 24.5t8.5 29.5q4 16 4 34v396q0 88 32 154.5t81 103.5t124.5 45t168.5 8v-145q-20 0 -48 -1t-53.5 -8.5t-43 -24t-17.5 -42.5v-447q0 -90 -25.5 -131t-59.5 -58t-68 -22.5t-50 -21.5v-2l31 -4q32 -4 70 -26.5t70 -70t32 -133.5 v-434q0 -29 17.5 -44t43 -22.5t53 -8.5t48.5 -1v-157q-92 0 -168 8t-125 45t-81 103.5t-32 154.5v401q0 18 -4 35q-4 14 -8 28.5t-15 24.5q-16 16 -133 17z" />
<glyph unicode="|" horiz-adv-x="493" d="M137 -512v2048h219v-2048h-219z" />
<glyph unicode="}" horiz-adv-x="679" d="M16 -123q20 0 48 1t53.5 8.5t43 22.5t17.5 44v446q0 88 25.5 130t59.5 59.5t68 22.5t50 22v2l-32 4t-69.5 26.5t-69.5 69.5t-32 133v435q0 27 -17.5 43t-43 23t-53 8t-48.5 1v158q92 0 168 -8t125 -45t81 -103.5t32 -154.5v-402q0 -18 4 -35q4 -14 8 -28.5t15 -24.5 q16 -16 133 -16v-86v-90q-117 0 -133 -17q-10 -10 -14.5 -24.5t-8.5 -28.5q-4 -16 -4 -35v-395q0 -88 -32 -154.5t-81 -103.5t-124.5 -45t-168.5 -8v145z" />
<glyph unicode="~" horiz-adv-x="1028" d="M125 475q61 127 132 173t142 46q59 0 115.5 -19.5t114.5 -41.5q49 -20 97 -36.5t89 -16.5q45 0 89 33.5t85 123.5l121 -176q-59 -127 -123.5 -176t-134.5 -49q-53 0 -106.5 17.5t-106.5 39.5q-51 20 -101.5 39t-99.5 19q-47 0 -96 -31t-102 -109z" />
<glyph unicode="&#xa1;" horiz-adv-x="860" d="M291 918q0 59 41 101t100 42t101 -42t42 -101t-41.5 -100.5t-101.5 -41.5q-59 0 -100 41.5t-41 100.5zM297 -369h272l-22 1057h-223z" />
<glyph unicode="&#xa2;" horiz-adv-x="942" d="M74 528q0 166 55 272.5t138 168t179.5 86t178.5 24.5h42t40 -4l53 172h121l-60 -192q18 -6 33.5 -11.5t26.5 -9.5q12 -6 20 -8v-188q-16 4 -39 8q-18 4 -43.5 8t-54.5 8l-205 -672q16 -4 31.5 -6t32.5 -2q47 0 96 6.5t90 16.5q47 10 92 24v-190q-33 -18 -76 -31 q-37 -12 -88 -21.5t-114 -9.5q-57 0 -125 13l-52 -170l-129 -2l64 207q-61 25 -116.5 65.5t-97.5 102t-67.5 144.5t-25.5 191zM362 528q0 -92 25 -160.5t66 -111.5l190 616h-18q-55 0 -103.5 -24.5t-83.5 -68.5t-55.5 -107.5t-20.5 -143.5z" />
<glyph unicode="&#xa3;" horiz-adv-x="1253" d="M123 0v238h205v479h-205v237h205v35q0 176 47 289t119.5 177.5t161.5 88t173 23.5q72 0 131.5 -11.5t104.5 -25.5q53 -16 94 -37l-37 -221q-37 16 -82 28q-39 10 -92 19.5t-119 9.5t-108.5 -20.5t-67 -60.5t-36 -100.5t-15.5 -139.5v-54h328v-237h-328v-479h510v-238 h-989z" />
<glyph unicode="&#xa5;" horiz-adv-x="1343" d="M23 1397h294l355 -586l352 586h297l-375 -609h111v-174h-217l-37 -61v-43h254v-174h-254v-336h-279v336h-237v174h237v43l-35 61h-202v174h98z" />
<glyph unicode="&#xa6;" horiz-adv-x="454" d="M121 -358v716h213v-716h-213zM121 666v716h213v-716h-213z" />
<glyph unicode="&#xa7;" horiz-adv-x="1130" d="M172 651q0 66 28.5 128.5t78.5 109.5q-39 49 -60.5 111.5t-21.5 125.5q0 80 30.5 141.5t82.5 102.5t122 61.5t146 20.5q86 0 152.5 -12.5t113.5 -26.5q53 -18 94 -39l-31 -215q-41 16 -88 31q-41 10 -95 20.5t-116 10.5q-88 0 -127 -26t-39 -65q0 -18 11 -45 q18 -35 71.5 -62.5t116.5 -55.5l21 -11q49 -25 105 -54.5t104.5 -69t79 -92t30.5 -122.5q0 -66 -34 -128t-81 -113q59 -53 84 -113.5t23 -120.5q0 -84 -40 -152.5t-106.5 -115.5t-154.5 -72.5t-185 -25.5q-59 0 -112 10t-94 25q-49 14 -88 34l53 215q47 -16 114.5 -30.5 t128.5 -14.5q41 0 82 5.5t73 19.5t52.5 37.5t20.5 60.5q0 29 -12.5 48.5t-32 34t-45 25.5t-52.5 21l-61 23q-57 23 -117.5 53.5t-110.5 72.5t-82 99t-32 135zM410 666q0 -12 5 -28.5t17 -35.5l-2 4q23 -39 77 -59.5t103 -34.5q14 -4 31 -10q35 14 61.5 43.5t26.5 70.5 q0 20 -14.5 36t-38 29t-53 24.5t-58.5 21.5q-23 8 -41 13t-35 16q-35 -14 -57 -38t-22 -52z" />
<glyph unicode="&#xa8;" horiz-adv-x="741" d="M20 1204v271h250v-271h-250zM471 1204v271h250v-271h-250z" />
<glyph unicode="&#xa9;" horiz-adv-x="1708" d="M80 711q0 162 61.5 303t167 245.5t246.5 165t301 60.5q158 0 298 -60.5t245.5 -165t167 -246t61.5 -302.5q0 -156 -61.5 -295.5t-167 -243.5t-245.5 -165.5t-298 -61.5q-160 0 -301 61.5t-246.5 165.5t-167 243.5t-61.5 295.5zM254 711q0 -123 48 -231.5t130 -188.5 t191.5 -126t232.5 -46t231.5 46t190.5 126t130 188.5t48 231.5q0 125 -48 236.5t-130 194.5t-190.5 131t-231.5 48t-232.5 -48t-191.5 -131t-130 -194.5t-48 -236.5zM469 733q2 94 32.5 174t86 136.5t132.5 88t169 31.5q53 0 106.5 -10t114.5 -29l-12 -143 q-61 18 -110.5 26.5t-90.5 8.5q-121 0 -193.5 -69.5t-72.5 -213.5q0 -154 80 -236.5t198 -82.5q74 0 189 47l12 -152q-127 -41 -209 -41q-94 0 -173 33t-136 94.5t-90 147.5t-33 190z" />
<glyph unicode="&#xaa;" horiz-adv-x="700" d="M47 1001q0 70 28.5 117t74 75t98.5 39t102 11h117v6q0 35 -13.5 64.5t-68.5 29.5q-53 0 -110.5 -18t-139.5 -59v166q55 29 123 49t127 20q47 0 95 -14t86 -42t62.5 -71t24.5 -98v-498h-137l-29 43q-31 -25 -73.5 -41t-102.5 -16q-117 0 -190.5 57.5t-73.5 179.5z M233 1001q0 -41 28.5 -58t57.5 -17q59 0 98.5 27.5t49.5 72.5v70h-37q-20 0 -54 -3t-65.5 -12.5t-54.5 -28t-23 -51.5z" />
<glyph unicode="&#xab;" horiz-adv-x="1138" d="M100 551l242 420h258l-225 -420l225 -420h-258zM557 551l242 420h258l-226 -420l226 -420h-258z" />
<glyph unicode="&#xac;" horiz-adv-x="1228" d="M94 635v213h1041v-627h-213v414h-828z" />
<glyph unicode="&#xad;" horiz-adv-x="681" d="M72 438v226h538v-226h-538zM72 438v226h538v-226h-538z" />
<glyph unicode="&#xae;" horiz-adv-x="1652" d="M80 713q0 156 59.5 292t160.5 236t237 158.5t290 58.5t289 -58.5t236.5 -158.5t161 -236.5t59.5 -291.5q0 -152 -59.5 -286t-161 -234.5t-236.5 -160t-289 -59.5t-290 59.5t-237 160t-160.5 234.5t-59.5 286zM248 713q0 -119 46 -223.5t125 -181.5t184 -122t224 -45 q117 0 222.5 45t184.5 122t125 181.5t46 223.5q0 121 -46 227.5t-125 186t-184.5 125.5t-222.5 46q-119 0 -224 -46t-184 -125.5t-125 -186t-46 -227.5zM565 328v774h307q86 0 131.5 -31t65.5 -65q23 -41 27 -95q0 -45 -12.5 -76.5t-32 -53t-44 -34t-49.5 -18.5l185 -401 h-152l-147 334h-135v-334h-144zM709 784h127q41 0 62.5 15.5t31.5 36.5q12 23 14 53q-2 29 -14 51q-10 18 -31.5 34.5t-62.5 16.5h-127v-207z" />
<glyph unicode="&#xb0;" horiz-adv-x="819" d="M80 1124q0 68 25.5 128.5t70.5 105.5t105.5 70.5t128.5 25.5t128 -25.5t105 -70.5t70.5 -105.5t25.5 -128.5q0 -70 -25.5 -130t-69.5 -104t-104.5 -69.5t-129.5 -25.5q-72 0 -132.5 24.5t-104.5 68.5t-68.5 104.5t-24.5 131.5zM229 1124q0 -80 50.5 -130t130.5 -50 t130 50t50 130t-50 130.5t-130 50.5t-130.5 -50.5t-50.5 -130.5z" />
<glyph unicode="&#xb1;" horiz-adv-x="1228" d="M94 0v213h1041v-213h-1041zM94 553v213h414v270h213v-270h414v-213h-414v-272h-213v272h-414z" />
<glyph unicode="&#xb2;" horiz-adv-x="755" d="M61 1255q2 2 9.5 15.5t18.5 31t25.5 36t32.5 32.5q100 84 230 84q137 0 223 -80v2q88 -78 88 -202q0 -113 -90 -199q-35 -31 -78 -57.5t-86 -49.5l-14 -8h2q-37 -23 -72 -43t-61 -49q-25 -20 -33 -43h440v-164h-624v82q0 141 102 242q37 39 87 69.5t97 55.5 q74 43 120 78.5t46 85.5q0 51 -35 81q-39 35 -112 35q-72 0 -123 -43q-14 -12 -23.5 -24.5t-13.5 -18.5l2 6q-2 -4 -5 -8t-7 -8l-10 -10z" />
<glyph unicode="&#xb3;" horiz-adv-x="673" d="M20 664l125 116q27 -29 66 -54.5t90 -25.5q27 0 54.5 7.5t49 21.5t35 36.5t13.5 53.5q0 33 -27 64.5t-92 31.5h-92l-11 168h103q39 0 77 19.5t42 68.5q-4 61 -48.5 88t-103.5 27q-51 0 -90 -26.5t-66 -53.5l-125 115q61 82 160 112.5t195 11t166.5 -86t76.5 -176.5v-15 q-4 -49 -22 -91t-51 -79q37 -35 54 -81t19 -99q0 -88 -46 -152.5t-116.5 -98.5t-155.5 -34t-159 37q-29 12 -57.5 38t-63.5 57z" />
<glyph unicode="&#xb4;" horiz-adv-x="710" d="M150 1124l231 357h315l-327 -357h-219z" />
<glyph unicode="&#xb5;" d="M141 -365v811v609h275v-572q0 -152 41 -222.5t141 -70.5q121 0 179.5 99.5t58.5 263.5v502h274v-1055h-209l-55 145l-20 -25q-21 -26 -62 -57.5t-101.5 -58.5t-142.5 -27q-29 0 -54.5 2.5t-49.5 6.5v-351h-275z" />
<glyph unicode="&#xb6;" horiz-adv-x="1253" d="M4 1067q0 76 23.5 143.5t70.5 119.5t120 85t169 39h692l-2 -1655l-215 -2v1420h-211l-12 -1420h-215v867h-39q-94 0 -164.5 33.5t-119 91t-73 129t-24.5 149.5z" />
<glyph unicode="&#xb7;" horiz-adv-x="569" d="M127 582q0 70 43 113.5t115 43.5t114.5 -44t42.5 -113q0 -70 -42.5 -114t-114.5 -44t-115 44t-43 114z" />
<glyph unicode="&#xb8;" horiz-adv-x="671" d="M184 -358l56 116l24 -20q47 -41 88 -45t70 -4q47 0 71.5 23.5t26.5 51t-18.5 51t-63.5 23.5q-18 0 -41.5 -7t-56.5 -19l-47 61l113 166h135l-60 -88q119 -16 164 -78.5t29.5 -131.5t-82 -123t-166.5 -54q-72 0 -136.5 23.5t-105.5 54.5z" />
<glyph unicode="&#xb9;" horiz-adv-x="620" d="M25 1237l223 195h135v-871h-166v641l-111 -98z" />
<glyph unicode="&#xba;" horiz-adv-x="765" d="M53 1112q0 104 33 171t82 105.5t106.5 53t106.5 14.5t106.5 -14.5t106.5 -53t83 -105t34 -171.5q0 -104 -34 -171t-83 -105.5t-106.5 -53t-106.5 -14.5t-106.5 14.5t-106.5 53t-82 105.5t-33 171zM229 1112q0 -100 44.5 -146t107.5 -46t107 46t44 146q0 98 -44 148.5 t-107 50.5t-107.5 -50.5t-44.5 -148.5z" />
<glyph unicode="&#xbb;" horiz-adv-x="1138" d="M82 131l225 420l-225 420h258l242 -420l-242 -420h-258zM539 131l225 420l-225 420h258l241 -420l-241 -420h-258z" />
<glyph unicode="&#xbc;" horiz-adv-x="1474" d="M41 1237l223 195h135v-871h-166v641l-110 -98zM197 -45l884 1520h168l-884 -1520h-168zM762 203v153l354 539h193v-551h112v-141h-112v-203h-170v203h-377zM938 344h201v315z" />
<glyph unicode="&#xbd;" horiz-adv-x="1630" d="M20 1237l224 195h135v-871h-166v641l-111 -98zM172 -45l885 1520h168l-885 -1520h-168zM928 696q2 2 9 15.5t18.5 31t25.5 36t33 32.5q100 84 229 84q137 0 223 -80v2q88 -78 88 -203q0 -113 -90 -198q-35 -31 -78 -57.5t-86 -49.5l-14 -8h2q-37 -23 -71.5 -43t-61.5 -49 q-25 -20 -33 -43h441v-164h-625v82q0 141 102 242q37 39 87.5 69.5t97.5 55.5q74 43 120 78.5t46 84.5q0 51 -35 82q-39 35 -113 35q-72 0 -123 -43q-14 -12 -23.5 -24.5t-13.5 -18.5l2 6q-2 -4 -5 -8t-7 -8l-10 -10z" />
<glyph unicode="&#xbe;" horiz-adv-x="1513" d="M29 664l125 116q27 -29 65.5 -54.5t89.5 -25.5q27 0 54.5 7.5t49 21.5t35 36.5t13.5 53.5q0 33 -26.5 64.5t-92.5 31.5h-92l-10 168h102q39 0 77 19.5t42 68.5q-4 61 -48 88t-104 27q-51 0 -90 -26.5t-65 -53.5l-125 115q61 82 159.5 112.5t194.5 11t167 -86t77 -176.5 v-15q-4 -49 -22.5 -91t-51.5 -79q37 -35 54.5 -81t19.5 -99q0 -88 -46 -152.5t-117 -98.5t-156 -34t-158 37q-29 12 -58 38t-63 57zM270 -45l885 1520h168l-885 -1520h-168zM827 203v153l355 539h192v-551h113v-141h-113v-203h-170v203h-377zM1004 344h200v315z" />
<glyph unicode="&#xbf;" horiz-adv-x="1007" d="M88 25q0 74 23.5 133t58.5 111.5t77 99.5t76.5 96t58.5 102.5t24 116.5h258q0 -88 -23 -156.5t-55.5 -124t-71.5 -101.5t-71.5 -91t-55 -93t-22.5 -106q0 -31 9 -60.5t28.5 -53t51 -38t76.5 -14.5q14 0 34 2t42 7q31 4 77 19t89 34q51 23 105 47l51 -217q-29 -16 -74 -39 t-101.5 -42t-120 -33.5t-128.5 -14.5q-80 0 -156 25.5t-141 91.5q-35 35 -60 79q-23 39 -41 94.5t-18 125.5zM393 920q0 59 41 101t101 42q59 0 101 -42t42 -101t-42 -100.5t-101 -41.5t-100.5 41t-41.5 101z" />
<glyph unicode="&#xc0;" horiz-adv-x="1447" d="M18 0h312l123 338h542l123 -338h312l-527 1432h-358zM354 1823h262l183 -299h-172zM547 596l7 20q7 21 19.5 55t28.5 78t33 89l90 241q23 -61 53.5 -145t58 -160t45.5 -127l19 -51h-354z" />
<glyph unicode="&#xc1;" horiz-adv-x="1447" d="M18 0h312l123 338h542l123 -338h312l-527 1432h-358zM547 596l7 20q7 21 19.5 55t28.5 78t33 89l90 241q49 -135 88 -241q16 -45 32.5 -89t29 -78t19.5 -55l7 -20h-354zM547 1524l182 299h262l-272 -299h-172z" />
<glyph unicode="&#xc2;" horiz-adv-x="1447" d="M18 0l527 1432h358l527 -1432h-312l-123 338h-542l-123 -338h-312zM397 1522l226 299h206l215 -299h-182l-139 176l-143 -176h-183zM547 596h354l-19 51q-18 51 -45.5 127t-58 160t-53.5 145l-90 -241q-16 -45 -32.5 -89t-29 -78t-19.5 -55z" />
<glyph unicode="&#xc3;" horiz-adv-x="1447" d="M18 0l527 1432h358l527 -1432h-312l-123 338h-542l-123 -338h-312zM369 1665q45 96 97 130t105 34q45 0 87 -14.5t85 -32.5q37 -14 72 -26.5t68 -12.5t65.5 26.5t61.5 92.5l90 -119q-43 -94 -90 -130t-101 -36q-39 0 -78.5 13.5t-80.5 29.5q-39 16 -75 29.5t-73 13.5 t-72.5 -23.5t-74.5 -83.5zM547 596h354l-19 51q-18 51 -45.5 127t-58 160t-53.5 145l-90 -241q-16 -45 -32.5 -89t-29 -78t-19.5 -55z" />
<glyph unicode="&#xc4;" horiz-adv-x="1447" d="M18 0l527 1432h358l527 -1432h-312l-123 338h-542l-123 -338h-312zM393 1550v238h238v-238h-238zM547 596h354l-19 51q-18 51 -45.5 127t-58 160t-53.5 145l-90 -241q-16 -45 -32.5 -89t-29 -78t-19.5 -55zM815 1550v238h238v-238h-238z" />
<glyph unicode="&#xc5;" horiz-adv-x="1447" d="M18 0l527 1432h358l527 -1432h-312l-123 338h-542l-123 -338h-312zM496 1696q0 45 17 85t47 69.5t70 47t85 17.5t85 -17.5t68.5 -47t46 -69.5t17.5 -85q0 -92 -62.5 -154.5t-154.5 -62.5q-45 0 -85 17t-70 46t-47 69t-17 85zM547 596h354l-19 51q-18 51 -45.5 127 t-58 160t-53.5 145l-90 -241q-16 -45 -32.5 -89t-29 -78t-19.5 -55zM606 1696q0 -45 31 -76t78 -31q45 0 75.5 31t30.5 76q0 47 -30.5 77.5t-75.5 30.5q-47 0 -78 -30.5t-31 -77.5z" />
<glyph unicode="&#xc6;" horiz-adv-x="1894" d="M-2 0l864 1432h887l-51 -228h-510v-350h508v-227h-508v-400h557v-227h-846v338h-371l-206 -338h-324zM672 598h227v371l-27 -42q-26 -42 -62 -102.5t-75 -124t-63 -102.5z" />
<glyph unicode="&#xc7;" horiz-adv-x="1204" d="M96 715q0 147 31 259.5t84 194.5t121.5 136.5t144.5 87t154 46t147 13.5q78 0 146.5 -11t122.5 -26q61 -16 112 -35v-223q-82 31 -171 49.5t-174 15.5t-160.5 -30t-133 -86t-91.5 -155.5t-34 -235.5q0 -141 34 -237.5t91.5 -157t133 -87t160.5 -27.5t174 19.5t171 55.5 v-226q-41 -18 -92 -32q-43 -14 -102.5 -26.5t-124.5 -16.5l-35 -56q12 2 23.5 3t23.5 1q66 0 119 -39t69 -98q12 -55 -12 -106q-27 -55 -96 -93q-72 -39 -156 -38q-70 0 -124 19t-87 34l-8 4l-18 10l47 100l20 -10q98 -51 168 -51q57 0 84 27.5t27 60.5t-24.5 59.5 t-72.5 26.5q-39 0 -90 -22l-6 -5l-41 54l70 119q-102 6 -213 43.5t-202 120.5t-150.5 222.5t-59.5 348.5z" />
<glyph unicode="&#xc8;" horiz-adv-x="1134" d="M166 0h844v227h-557v400h510v227h-510v350h510l47 228h-844v-1432zM295 1823h262l182 -299h-172z" />
<glyph unicode="&#xc9;" horiz-adv-x="1134" d="M166 0h844v227h-557v400h510v227h-510v350h510l47 228h-844v-1432zM401 1524l183 299h262l-273 -299h-172z" />
<glyph unicode="&#xca;" horiz-adv-x="1134" d="M166 0v1432h844l-47 -228h-510v-350h510v-227h-510v-400h557v-227h-844zM258 1522l225 299h207l215 -299h-182l-139 176l-144 -176h-182z" />
<glyph unicode="&#xcb;" horiz-adv-x="1134" d="M166 0v1432h844l-47 -228h-510v-350h510v-227h-510v-400h557v-227h-844zM260 1550v238h238v-238h-238zM682 1550v238h238v-238h-238z" />
<glyph unicode="&#xcc;" horiz-adv-x="563" d="M2 1823h262l182 -299h-172zM154 0h284v1432h-284v-1432z" />
<glyph unicode="&#xcd;" horiz-adv-x="563" d="M117 1524l182 299h262l-272 -299h-172zM147 0h285v1432h-285v-1432z" />
<glyph unicode="&#xce;" horiz-adv-x="569" d="M-39 1522l225 299h207l215 -299h-182l-139 176l-144 -176h-182zM154 0v1432h284v-1432h-284z" />
<glyph unicode="&#xcf;" horiz-adv-x="569" d="M-45 1548v238h238v-238h-238zM141 0v1432h285v-1432h-285zM377 1548v238h237v-238h-237z" />
<glyph unicode="&#xd0;" horiz-adv-x="1353" />
<glyph unicode="&#xd1;" horiz-adv-x="1478" d="M152 0v1432h376l527 -1074v1074h272v-1432h-377l-526 1075v-1075h-272zM371 1673q45 96 97 130t105 34q45 0 87 -14.5t85 -32.5q37 -14 72 -26.5t68 -12.5t65.5 26.5t61.5 92.5l90 -133q-43 -94 -90 -130t-101 -36q-39 0 -78.5 13t-80.5 30q-39 16 -75 29.5t-73 13.5 t-72.5 -22.5t-74.5 -82.5z" />
<glyph unicode="&#xd2;" horiz-adv-x="1591" d="M96 713q0 -225 68.5 -368.5t173 -224.5t227.5 -112t232 -31t231.5 31t226 112t172 224t68.5 369q0 223 -68.5 367.5t-172 227.5t-226 114.5t-231.5 31.5t-232 -31.5t-227.5 -114.5t-173 -227.5t-68.5 -367.5zM395 713q0 131 30 227t84 160.5t128 96.5t160 32t159.5 -32 t127 -95.5t83 -160.5t29.5 -226q0 -133 -29.5 -230.5t-83 -160t-127 -93t-159.5 -30.5t-160 30.5t-128 93t-84 159t-30 229.5zM498 1823h262l182 -299h-172z" />
<glyph unicode="&#xd3;" horiz-adv-x="1591" d="M96 713q0 -225 68.5 -368.5t173 -224.5t227.5 -112t232 -31t231.5 31t226 112t172 224t68.5 369q0 223 -68.5 367.5t-172 227.5t-226 114.5t-231.5 31.5t-232 -31.5t-227.5 -114.5t-173 -227.5t-68.5 -367.5zM395 713q0 131 30 227t84 160.5t128 96.5t160 32t159.5 -32 t127 -95.5t83 -160.5t29.5 -226q0 -133 -29.5 -230.5t-83 -160t-127 -93t-159.5 -30.5t-160 30.5t-128 93t-84 159t-30 229.5zM670 1524l182 299h262l-272 -299h-172z" />
<glyph unicode="&#xd5;" horiz-adv-x="1579" d="M90 713q0 223 68.5 366.5t173 226.5t227.5 114.5t232 31.5q72 0 152.5 -13.5t157.5 -46t147.5 -87t123.5 -136.5t85 -194.5t32 -261.5q0 -225 -68.5 -368.5t-172 -224.5t-226.5 -112t-231 -31q-109 0 -232 31t-227.5 112t-173 224t-68.5 369zM389 713q0 -133 30 -229.5 t84 -159t128 -93t160 -30.5t159.5 30.5t126.5 93t83 160t30 230.5q0 129 -30 225t-83 159.5t-126.5 95.5t-159.5 32t-160 -32t-128 -95.5t-84 -159.5t-30 -227zM397 1665q45 96 97.5 130t105.5 34q45 0 87 -14.5t85 -32.5q37 -14 72 -26.5t67 -12.5q33 0 66 26.5t61 92.5 l90 -119q-43 -94 -90 -130t-100 -36q-39 0 -79 13.5t-81 29.5q-39 16 -74.5 29.5t-72.5 13.5t-73 -23.5t-75 -83.5z" />
<glyph unicode="&#xd6;" horiz-adv-x="1591" d="M96 713q0 223 68.5 367.5t173 227.5t227.5 114.5t232 31.5t231.5 -31.5t226 -114.5t172 -227.5t68.5 -367.5q0 -150 -31.5 -263.5t-85 -195.5t-124 -136.5t-147.5 -86t-158 -45t-152 -13.5q-109 0 -232 31t-227.5 114t-173 226t-68.5 369zM395 713q0 -133 30 -229.5 t84 -159t128 -93t160 -30.5t159.5 30.5t127 93t83 160t29.5 230.5q0 129 -29.5 226t-83 160.5t-127 95.5t-159.5 32t-160 -32t-128 -96.5t-84 -160.5t-30 -227zM465 1550v238h237v-238h-237zM887 1550v238h237v-238h-237z" />
<glyph unicode="&#xd7;" horiz-adv-x="1298" d="M137 199l342 344l-342 336l172 176l342 -342l336 342l174 -176l-338 -336l338 -344l-174 -174l-336 344l-342 -344z" />
<glyph unicode="&#xd8;" horiz-adv-x="1591" d="M96 713q0 223 68.5 367.5t173 227.5t227.5 114.5t232 31.5q98 0 207.5 -25.5t207.5 -91.5l115 148l78 -74l-109 -141q88 -86 143.5 -220.5t55.5 -336.5q0 -225 -68.5 -368.5t-172 -224.5t-226.5 -112t-231 -31q-98 0 -206 24t-206 85l-119 -154l-80 76l113 146 q-90 86 -146.5 220t-56.5 339zM395 713q0 -209 76 -336l584 756q-106 96 -258 96q-86 0 -160 -32t-128 -96.5t-84 -160.5t-30 -227zM543 291q102 -90 254 -90q86 0 159.5 30.5t127 93t83 160t29.5 230.5q0 104 -19.5 186t-54.5 143z" />
<glyph unicode="&#xd9;" horiz-adv-x="1480" d="M156 522v910h286v-943q0 -57 12.5 -109t46.5 -91t91 -61.5t149 -22.5t149.5 24.5t90.5 65.5t45 94t12 111v932h287v-910q0 -115 -40 -214t-115.5 -173t-183.5 -116t-245 -42q-135 0 -243.5 42t-184 116t-116.5 173.5t-41 213.5zM489 1823h263l182 -299h-172z" />
<glyph unicode="&#xda;" horiz-adv-x="1480" d="M156 522v910h286v-943q0 -57 12.5 -109t46.5 -91t91 -61.5t149 -22.5t149.5 24.5t90.5 65.5t45 94t12 111v932h287v-910q0 -115 -40 -214t-115.5 -173t-183.5 -116t-245 -42q-135 0 -243.5 42t-184 116t-116.5 173.5t-41 213.5zM567 1524l183 299h262l-273 -299h-172z " />
<glyph unicode="&#xdc;" horiz-adv-x="1480" d="M156 522v910h286v-943q0 -57 12.5 -109t46.5 -91t91 -61.5t149 -22.5t149.5 24.5t90.5 65.5t45 94t12 111v932h287v-910q0 -115 -40 -214t-115.5 -173t-183.5 -116t-245 -42q-135 0 -243.5 42t-184 116t-116.5 173.5t-41 213.5zM414 1550v238h237v-238h-237zM836 1550 v238h237v-238h-237z" />
<glyph unicode="&#xdd;" horiz-adv-x="1343" d="M23 1397l501 -844v-553h279v553l518 844h-297l-352 -586l-355 586h-294zM539 1524l182 299h262l-272 -299h-172z" />
<glyph unicode="&#xde;" horiz-adv-x="1163" d="M170 0v1434h268v-265h121q113 0 212 -22.5t174 -74.5t118 -137t43 -212q0 -123 -44 -208t-116 -137t-166 -74.5t-192 -22.5h-152v-281h-266zM438 508h119q55 0 105.5 11t87 37t59 68t22.5 101q0 61 -22.5 103t-59 67t-87 36t-105.5 11h-119v-434z" />
<glyph unicode="&#xdf;" horiz-adv-x="1705" />
<glyph unicode="&#xe0;" horiz-adv-x="1075" d="M49 283q2 -76 29.5 -133.5t73 -95.5t104.5 -57.5t125 -19.5q29 0 75 6.5t93 23t90 43t68 69.5q0 2 6 -16.5t13 -41t13 -41.5l6 -20h216v680q2 109 -41 184.5t-111 123.5t-145.5 69.5t-145.5 21.5t-137.5 -15t-126.5 -33.5t-95 -34t-40 -17.5v-207q12 10 61 31.5t114.5 41 t138.5 30t134.5 -3t101.5 -57.5t40 -132v-41q-72 4 -162 8t-166 -6q-162 -18 -251 -109.5t-81 -250.5zM242 1497h262l182 -299h-172zM309 336q0 59 37 91t90 48q31 8 69 13.5t74.5 6.5t70.5 0t57 -1v-86q0 -53 -27 -94.5t-68 -68t-89 -39.5t-87 -11q-51 4 -89 39.5 t-38 101.5z" />
<glyph unicode="&#xe1;" horiz-adv-x="1075" d="M49 283q2 -76 29.5 -133.5t73 -95.5t104.5 -57.5t125 -19.5q29 0 75 6.5t93 23t90 43t68 69.5q0 2 6 -16.5t13 -41t13 -41.5l6 -20h216v680q2 109 -41 184.5t-111 123.5t-145.5 69.5t-145.5 21.5t-137.5 -15t-126.5 -33.5t-95 -34t-40 -17.5v-207q12 10 61 31.5t114.5 41 t138.5 30t134.5 -3t101.5 -57.5t40 -132v-41q-72 4 -162 8t-166 -6q-162 -18 -251 -109.5t-81 -250.5zM309 336q0 59 37 91t90 48q31 8 69 13.5t74.5 6.5t70.5 0t57 -1v-86q0 -53 -27 -94.5t-68 -68t-89 -39.5t-87 -11q-51 4 -89 39.5t-38 101.5zM403 1198l183 299h262 l-273 -299h-172z" />
<glyph unicode="&#xe2;" horiz-adv-x="1075" d="M49 283q-8 160 81 251t251 109q76 10 166 6t162 -8v41q0 88 -40 132t-101.5 57.5t-134.5 3t-138.5 -30t-114.5 -41t-61 -31.5v207q2 2 40 17.5t95 34t127 33.5t137 15q68 0 145.5 -21.5t145.5 -69.5t111 -124t41 -184v-680h-216l-6 20q-6 19 -13 41.5t-13 41t-6 16.5 q-25 -43 -68 -69.5t-90 -43t-93 -23t-75 -6.5q-66 0 -125 19.5t-104.5 57.5t-73 95.5t-29.5 133.5zM188 1196l226 299h207l215 -299h-183l-139 176l-143 -176h-183zM309 336q0 -66 38 -101.5t89 -39.5q39 -2 87 11t89 39.5t68 67.5t27 95v86q-23 0 -57 1t-70.5 0t-74.5 -6.5 t-69 -13.5q-53 -16 -90 -48t-37 -91z" />
<glyph unicode="&#xe3;" horiz-adv-x="1075" d="M49 283q-8 160 81 251t251 109q76 10 166 6t162 -8v41q0 88 -40 132t-101.5 57.5t-134.5 3t-138.5 -30t-114.5 -41t-61 -31.5v207q2 2 40 17.5t95 34t127 33.5t137 15q68 0 145.5 -21.5t145.5 -69.5t111 -124t41 -184v-680h-216l-6 20q-6 19 -13 41.5t-13 41t-6 16.5 q-25 -43 -68 -69.5t-90 -43t-93 -23t-75 -6.5q-66 0 -125 19.5t-104.5 57.5t-73 95.5t-29.5 133.5zM160 1288q45 96 97 130t105 34q45 0 87.5 -14.5t85.5 -32.5q37 -14 71.5 -26.5t67.5 -12.5t65.5 26.5t61.5 92.5l90 -119q-43 -94 -90 -130t-101 -36q-39 0 -78.5 13.5 t-80.5 29.5q-39 16 -75 29.5t-73 13.5t-72.5 -23.5t-74.5 -82.5zM309 336q0 -66 38 -101.5t89 -39.5q39 -2 87 11t89 39.5t68 67.5t27 95v86q-23 0 -57 1t-70.5 0t-74.5 -6.5t-69 -13.5q-53 -16 -90 -48t-37 -91z" />
<glyph unicode="&#xe4;" horiz-adv-x="1075" d="M49 283q-8 160 81 251t251 109q76 10 166 6t162 -8v41q0 88 -40 132t-101.5 57.5t-134.5 3t-138.5 -30t-114.5 -41t-61 -31.5v207q2 2 40 17.5t95 34t127 33.5t137 15q68 0 145.5 -21.5t145.5 -69.5t111 -124t41 -184v-680h-216l-6 20q-6 19 -13 41.5t-13 41t-6 16.5 q-25 -43 -68 -69.5t-90 -43t-93 -23t-75 -6.5q-66 0 -125 19.5t-104.5 57.5t-73 95.5t-29.5 133.5zM201 1196v238h237v-238h-237zM309 336q0 -66 38 -101.5t89 -39.5q39 -2 87 11t89 39.5t68 67.5t27 95v86q-23 0 -57 1t-70.5 0t-74.5 -6.5t-69 -13.5q-53 -16 -90 -48 t-37 -91zM623 1196v238h237v-238h-237z" />
<glyph unicode="&#xe5;" horiz-adv-x="1075" d="M49 283q-8 160 81 251t251 109q76 10 166 6t162 -8v41q0 88 -40 132t-101.5 57.5t-134.5 3t-138.5 -30t-114.5 -41t-61 -31.5v207q2 2 40 17.5t95 34t127 33.5t137 15q68 0 145.5 -21.5t145.5 -69.5t111 -124t41 -184v-680h-216l-6 20q-6 19 -13 41.5t-13 41t-6 16.5 q-25 -43 -68 -69.5t-90 -43t-93 -23t-75 -6.5q-66 0 -125 19.5t-104.5 57.5t-73 95.5t-29.5 133.5zM305 1485q0 106 70 176q35 35 80 51.5t98 20.5q53 -4 97 -20.5t81 -49.5l2 -2q33 -35 51.5 -79t20.5 -97q-4 -109 -72 -176q-39 -35 -83 -54.5t-97 -19.5q-51 0 -96 18.5 t-80 53.5q-72 72 -72 178zM309 336q0 -66 38 -101.5t89 -39.5q39 -2 87 11t89 39.5t68 67.5t27 95v86q-23 0 -57 1t-70.5 0t-74.5 -6.5t-69 -13.5q-53 -16 -90 -48t-37 -91zM471 1485q0 -39 31 -64q18 -18 51 -18q43 0 61 24l2 3q23 18 23 55t-23 59q-20 23 -63 23 q-35 0 -57 -25q-25 -18 -25 -57z" />
<glyph unicode="&#xe6;" horiz-adv-x="1828" d="M94 281q-4 80 19.5 142t69.5 107t111.5 73t145.5 38q76 10 144.5 8t140.5 -6q0 41 -6 78t-26.5 64.5t-60.5 44t-108 16.5q-90 0 -157.5 -15.5t-114.5 -34t-70 -33.5l-24 -15l2 227q39 23 92 43q47 16 114.5 30.5t157.5 14.5q51 0 106.5 -6t105.5 -18.5t94 -32t75 -45.5 q59 47 140 74.5t186 27.5q133 0 228 -44t156.5 -117t91.5 -167t30 -192v-105h-740v-8q8 -31 33 -71t67 -76.5t102.5 -62t139.5 -25.5q57 0 117 14t107 33q55 20 108 47v-211q0 -2 -26.5 -17.5t-71.5 -34t-105.5 -34t-128.5 -15.5q-160 0 -270.5 43t-183.5 115 q-86 -72 -203 -115t-242 -43q-66 0 -127 19.5t-109 57.5t-78 94.5t-32 132.5zM367 334q0 -66 39 -101.5t90 -39.5q39 -2 80.5 11t74.5 39.5t53.5 67.5t20.5 95v86q-47 2 -107.5 1t-121.5 -20q-53 -16 -91 -48t-38 -91zM997 637h467q-4 37 -22.5 74t-48 67.5t-70.5 49 t-92 18.5t-92 -18.5t-71 -49t-48.5 -67.5t-22.5 -74z" />
<glyph unicode="&#xe7;" horiz-adv-x="942" d="M160 524q0 174 55 282.5t138 168t179.5 80t178.5 20.5q63 0 112 -8t84 -18q39 -12 72 -27v-209q-80 33 -173 44t-173 -16.5t-133.5 -103t-53.5 -213.5q0 -145 53.5 -219t133.5 -98.5t173 -10t173 49.5v-211q-25 -14 -57 -25q-29 -10 -68 -19t-90 -14l-39 -59q12 2 23.5 3 t23.5 1q66 0 119 -39t70 -98q12 -55 -13 -107q-27 -55 -96 -92q-72 -39 -156 -39q-70 0 -124 19.5t-87 34.5l-8 4l-18 10l47 100l20 -10q98 -51 168 -51q57 0 84 27.5t27 60.5t-24.5 59.5t-71.5 26.5q-39 0 -91 -23l-6 -4l-41 54l76 122q-80 6 -166 33t-157.5 88.5 t-117.5 164t-46 261.5z" />
<glyph unicode="&#xe8;" horiz-adv-x="1136" d="M74 528q0 98 26.5 196.5t85 177.5t152.5 128t229 49q143 0 238.5 -49t153 -128t81 -177t23.5 -197v-92h-725q0 -111 79 -182.5t216 -71.5q78 0 143.5 16.5t112.5 37.5q53 23 98 53v-230q0 -2 -26.5 -14t-71.5 -27.5t-106.5 -28t-131.5 -12.5q-170 0 -280.5 45.5t-177 121 t-93 175t-26.5 209.5zM244 1497h262l182 -299h-172zM338 631h465q0 35 -9.5 77t-35 78.5t-71.5 61t-120 24.5q-63 0 -107 -24.5t-71 -61t-39 -78.5t-12 -77z" />
<glyph unicode="&#xe9;" horiz-adv-x="1136" d="M74 528q0 98 26.5 196.5t85 177.5t152.5 128t229 49q143 0 238.5 -49t153 -128t81 -177t23.5 -197v-92h-725q0 -111 79 -182.5t216 -71.5q78 0 143.5 16.5t112.5 37.5q53 23 98 53v-230q0 -2 -26.5 -14t-71.5 -27.5t-106.5 -28t-131.5 -12.5q-170 0 -280.5 45.5t-177 121 t-93 175t-26.5 209.5zM338 631h465q0 35 -9.5 77t-35 78.5t-71.5 61t-120 24.5q-63 0 -107 -24.5t-71 -61t-39 -78.5t-12 -77zM362 1198l183 299h262l-272 -299h-173zM362 1198l183 299h262l-272 -299h-173z" />
<glyph unicode="&#xea;" horiz-adv-x="1136" d="M74 528q0 98 26.5 196.5t85 177.5t152.5 128t229 49q143 0 238.5 -49t153 -128t81 -177t23.5 -197v-92h-725q0 -111 79 -182.5t216 -71.5q78 0 143.5 16.5t112.5 37.5q53 23 98 53v-230q0 -2 -26.5 -14t-71.5 -27.5t-106.5 -28t-131.5 -12.5q-170 0 -280.5 45.5t-177 121 t-93 175t-26.5 209.5zM242 1196l225 299h207l215 -299h-182l-140 176l-143 -176h-182zM338 631h465q0 35 -9.5 77t-35 78.5t-71.5 61t-120 24.5q-63 0 -107 -24.5t-71 -61t-39 -78.5t-12 -77z" />
<glyph unicode="&#xeb;" horiz-adv-x="1136" d="M74 528q0 98 26.5 196.5t85 177.5t152.5 128t229 49q143 0 238.5 -49t153 -128t81 -177t23.5 -197v-92h-725q0 -111 79 -182.5t216 -71.5q78 0 143.5 16.5t112.5 37.5q53 23 98 53v-230q0 -2 -26.5 -14t-71.5 -27.5t-106.5 -28t-131.5 -12.5q-170 0 -280.5 45.5t-177 121 t-93 175t-26.5 209.5zM246 1198v238h237v-238h-237zM338 631h465q0 35 -9.5 77t-35 78.5t-71.5 61t-120 24.5q-63 0 -107 -24.5t-71 -61t-39 -78.5t-12 -77zM668 1198v238h237v-238h-237z" />
<glyph unicode="&#xec;" horiz-adv-x="571" d="M-14 1497h262l182 -299h-172zM162 0v1055h276v-1055h-276z" />
<glyph unicode="&#xed;" horiz-adv-x="563" d="M133 1198l182 299h263l-273 -299h-172zM154 0v1055h276v-1055h-276z" />
<glyph unicode="&#xee;" horiz-adv-x="569" d="M-39 1196l225 299h207l215 -299h-182l-139 176l-144 -176h-182zM150 0v1044h268v-1044h-268z" />
<glyph unicode="&#xef;" horiz-adv-x="569" d="M-45 1198v238h238v-238h-238zM145 0v1055h277v-1055h-277zM377 1198v238h237v-238h-237z" />
<glyph unicode="&#xf0;" horiz-adv-x="1705" />
<glyph unicode="&#xf1;" horiz-adv-x="1243" d="M156 0v1055h204l56 -144q20 23 44.5 52.5t62.5 55t96.5 43t146.5 17.5q94 0 161.5 -31.5t111.5 -87t64.5 -131t20.5 -163.5v-666h-274v573q0 152 -41 223.5t-141 71.5q-121 0 -179.5 -100t-58.5 -264v-504h-274zM281 1305q45 96 97 129.5t105 33.5q45 0 87 -14t85 -33 q37 -14 72 -26.5t68 -12.5t65.5 27t61.5 92l90 -119q-43 -94 -90.5 -129.5t-100.5 -35.5q-39 0 -79 13t-80 30q-39 16 -75 29.5t-73 13.5t-72.5 -24t-74.5 -83z" />
<glyph unicode="&#xf2;" horiz-adv-x="1253" d="M74 528q0 -166 55 -272t138 -167.5t179.5 -86.5t178.5 -25t178 25t180 86.5t140.5 167.5t56.5 272t-56.5 272.5t-140.5 168t-180 86t-178 24.5t-178.5 -24.5t-179.5 -86t-138 -168t-55 -272.5zM289 1497h262l182 -299h-172zM362 528q0 166 76 255t187 89q115 0 191.5 -89 t76.5 -255t-76.5 -256t-191.5 -90q-55 0 -103.5 23.5t-83.5 67.5t-55.5 108.5t-20.5 146.5z" />
<glyph unicode="&#xf3;" horiz-adv-x="1253" d="M74 528q0 -166 55 -272t138 -167.5t179.5 -86.5t178.5 -25t178 25t180 86.5t140.5 167.5t56.5 272t-56.5 272.5t-140.5 168t-180 86t-178 24.5t-178.5 -24.5t-179.5 -86t-138 -168t-55 -272.5zM362 528q0 166 76 255t187 89q115 0 191.5 -89t76.5 -255t-76.5 -256 t-191.5 -90q-55 0 -103.5 23.5t-83.5 67.5t-55.5 108.5t-20.5 146.5zM508 1198l182 299h262l-272 -299h-172z" />
<glyph unicode="&#xf4;" horiz-adv-x="1253" d="M74 528q0 166 55 272.5t138 168t179.5 86t178.5 24.5t178 -24.5t180 -86t140.5 -168t56.5 -272.5t-56.5 -272t-140.5 -167.5t-180 -86.5t-178 -25t-178.5 25t-179.5 86.5t-138 167.5t-55 272zM299 1196l225 299h207l215 -299h-182l-139 176l-144 -176h-182zM362 528 q0 -82 20.5 -146.5t55.5 -108.5t83.5 -67.5t103.5 -23.5q115 0 191.5 90t76.5 256t-77 255t-191 89q-111 0 -187 -89t-76 -255z" />
<glyph unicode="&#xf5;" horiz-adv-x="1253" d="M74 528q0 166 55 272.5t138 168t179.5 86t178.5 24.5t178 -24.5t180 -86t140.5 -168t56.5 -272.5t-56.5 -272t-140.5 -167.5t-180 -86.5t-178 -25t-178.5 25t-179.5 86.5t-138 167.5t-55 272zM264 1288q45 96 97.5 130t105.5 34q45 0 87 -14.5t85 -32.5 q37 -14 71.5 -26.5t67.5 -12.5t66 26.5t61 92.5l90 -119q-43 -94 -90 -130t-100 -36q-39 0 -79 13.5t-81 29.5q-39 16 -74.5 29.5t-72.5 13.5t-73 -23.5t-75 -82.5zM362 528q0 -82 20.5 -146.5t55.5 -108.5t83.5 -67.5t103.5 -23.5q115 0 191.5 90t76.5 256t-77 255t-191 89 q-111 0 -187 -89t-76 -255z" />
<glyph unicode="&#xf6;" horiz-adv-x="1253" d="M74 528q0 166 55 272.5t138 168t179.5 86t178.5 24.5t178 -24.5t180 -86t140.5 -168t56.5 -272.5t-56.5 -272t-140.5 -167.5t-180 -86.5t-178 -25t-178.5 25t-179.5 86.5t-138 167.5t-55 272zM287 1198v238h237v-238h-237zM362 528q0 -82 20.5 -146.5t55.5 -108.5 t83.5 -67.5t103.5 -23.5q115 0 191.5 90t76.5 256t-77 255t-191 89q-111 0 -187 -89t-76 -255zM709 1198v238h237v-238h-237z" />
<glyph unicode="&#xf7;" horiz-adv-x="1228" d="M94 412v213h1041v-213h-1041zM457 111q0 70 43 113.5t114 43.5q72 0 115 -44t43 -113q0 -70 -43 -114t-115 -44t-114.5 44t-42.5 114zM457 926q0 70 42.5 113.5t114.5 43.5t115 -44t43 -113q0 -70 -43 -114t-115 -44t-114.5 44t-42.5 114z" />
<glyph unicode="&#xf8;" horiz-adv-x="1253" d="M74 528q0 166 55 272.5t138 168t179.5 86t178.5 24.5q72 0 157.5 -19.5t163.5 -66.5l113 135l82 -67l-111 -131q66 -66 108 -163t42 -239q0 -166 -56.5 -272t-140.5 -167.5t-180 -86.5t-178 -25q-72 0 -156 18.5t-162 65.5l-108 -131l-84 68l108 129q-66 63 -107.5 161.5 t-41.5 239.5zM362 528q0 -55 10.5 -102t26.5 -88l394 471q-74 63 -168 63q-111 0 -187 -89t-76 -255zM463 248q70 -66 162 -66q115 0 191.5 90t76.5 256q0 113 -37 191z" />
<glyph unicode="&#xf9;" d="M141 393q0 -90 20.5 -165.5t64.5 -131t112 -86t162 -30.5q88 0 146.5 17t96 43t62 55.5t45.5 51.5l55 -147h205v1055h-274v-500q0 -164 -58.5 -264.5t-179.5 -100.5q-100 0 -141 72t-41 223v570h-275v-662zM326 1497h262l182 -299h-172z" />
<glyph unicode="&#xfa;" d="M141 393v662h275v-570q0 -152 41 -223.5t141 -71.5q121 0 179.5 100.5t58.5 264.5v500h274v-1055h-205l-55 147q-20 -23 -45 -52t-62.5 -55t-96 -43t-146.5 -17q-94 0 -162 30.5t-112 86t-64.5 131t-20.5 165.5zM473 1198l227 348h308l-320 -348h-215z" />
<glyph unicode="&#xfb;" d="M141 393v662h275v-570q0 -152 41 -223.5t141 -71.5q121 0 179.5 100.5t58.5 264.5v500h274v-1055h-205l-55 147q-20 -23 -45 -52t-62.5 -55t-96 -43t-146.5 -17q-94 0 -162 30.5t-112 86t-64.5 131t-20.5 165.5zM305 1196l225 299h207l215 -299h-182l-139 176l-144 -176 h-182z" />
<glyph unicode="&#xfc;" d="M141 393v662h275v-570q0 -152 41 -223.5t141 -71.5q121 0 179.5 100.5t58.5 264.5v500h274v-1055h-205l-55 147q-20 -23 -45 -52t-62.5 -55t-96 -43t-146.5 -17q-94 0 -162 30.5t-112 86t-64.5 131t-20.5 165.5zM291 1198v238h237v-238h-237zM713 1198v238h237v-238h-237 z" />
<glyph unicode="&#xfd;" horiz-adv-x="1140" d="M23 1055l399 -1108q-23 -47 -55 -84q-29 -31 -72 -56.5t-102 -25.5v-236q96 0 172.5 29t135 72t99.5 93t67.5 95t39 77t14.5 36v-2l397 1110h-301l-233 -768l-258 768h-303zM471 1198l182 299h262l-272 -299h-172z" />
<glyph unicode="&#xfe;" horiz-adv-x="1243" d="M141 -426v1952h269l-2 -611q31 45 77 82q41 31 102.5 56.5t149.5 25.5q121 0 205 -44t136 -117.5t76 -173t24 -209.5q0 -111 -24 -212.5t-76 -178t-136 -122t-205 -45.5q-80 0 -139 25t-100 55q-47 35 -82 80v-563h-275zM141 -426v1952h269l-2 -611q31 45 77 82 q41 31 102.5 56.5t149.5 25.5q121 0 205 -44t136 -117.5t76 -173t24 -209.5q0 -111 -24 -212.5t-76 -178t-136 -122t-205 -45.5q-80 0 -139 25t-100 55q-47 35 -82 80v-563h-275zM416 535q0 170 68.5 249.5t166.5 79.5q49 0 92 -19.5t75 -60.5t51.5 -103.5t19.5 -145.5 q0 -84 -19.5 -148.5t-51.5 -107.5t-75 -66t-92 -23q-98 0 -166.5 88.5t-68.5 256.5zM416 535q0 170 68.5 249.5t166.5 79.5q49 0 92 -19.5t75 -60.5t51.5 -103.5t19.5 -145.5q0 -84 -19.5 -148.5t-51.5 -107.5t-75 -66t-92 -23q-98 0 -166.5 88.5t-68.5 256.5z" />
<glyph unicode="&#xff;" horiz-adv-x="1140" d="M23 1055h303l258 -768l233 768h301l-397 -1110v2q-2 -4 -14.5 -36t-39 -77t-67.5 -95t-99.5 -93t-135 -72t-172.5 -29v236q59 0 102 25.5t72 56.5q33 37 55 84zM240 1198v238h237v-238h-237zM662 1198v238h237v-238h-237z" />
<glyph unicode="&#x152;" horiz-adv-x="1925" d="M82 717q0 223 71.5 365.5t178 224.5t230.5 113.5t229 31.5q47 0 96 -3t102 -17h801l-47 -228h-510v-348h510v-229h-510v-400h557v-227h-801q-51 -14 -103 -18.5t-95 -4.5q-70 0 -150 13.5t-159 45.5t-150.5 87t-128 137t-89 194.5t-32.5 262.5zM381 717 q0 -133 32.5 -229.5t88 -161t130.5 -95t159 -30.5q39 0 79.5 7t75.5 19v977q-35 12 -75 17.5t-80 5.5q-84 0 -159 -31t-130.5 -93.5t-88 -158.5t-32.5 -227z" />
<glyph unicode="&#x153;" horiz-adv-x="1906" d="M94 530q0 166 55.5 272.5t138.5 168t179 85t178 23.5q49 0 103.5 -7t108.5 -25.5t106.5 -49t97.5 -75.5q59 72 148 114.5t218 42.5q139 0 233.5 -49t153 -128t84 -177t25.5 -197v-86h-725q2 -25 17.5 -68.5t49 -86.5t89 -75t139.5 -32q78 0 143.5 15.5t112.5 35.5 q53 23 98 54v-226q0 -2 -25.5 -14t-70.5 -27.5t-106.5 -28t-131.5 -12.5q-162 0 -270 45.5t-176 118.5q-45 -47 -98.5 -78.5t-108.5 -50t-110.5 -27t-104.5 -8.5q-82 0 -178 25t-179 87.5t-138.5 169t-55.5 271.5zM383 530q0 -82 20.5 -146.5t55.5 -108.5t83 -67.5 t103 -23.5q115 0 191.5 90.5t76.5 255.5q0 166 -76.5 255t-191.5 89q-111 0 -186.5 -89t-75.5 -255zM1198 631h465q0 35 -9 78t-35 79.5t-72 61t-120 24.5t-118.5 -24.5t-69.5 -61t-33 -79.5t-8 -78z" />
<glyph unicode="&#x178;" horiz-adv-x="1343" d="M23 1397h294l355 -586l352 586h297l-518 -844v-553h-279v553zM342 1550v238h238v-238h-238zM764 1550v238h237v-238h-237z" />
<glyph unicode="&#x2c6;" horiz-adv-x="575" d="M-12 1159l209 297h182l209 -297h-152l-153 199l-140 -199h-155z" />
<glyph unicode="&#x2dc;" horiz-adv-x="575" d="M-78 1276q45 96 97.5 130t105.5 34q45 0 87 -14.5t85 -32.5q37 -14 71.5 -26.5t67.5 -12.5t66 26.5t61 92.5l90 -119q-43 -94 -90 -130t-100 -36q-39 0 -79 13t-81 30q-39 16 -74.5 29.5t-72.5 13.5t-73 -23.5t-75 -83.5z" />
<glyph unicode="&#x2000;" horiz-adv-x="957" />
<glyph unicode="&#x2001;" horiz-adv-x="1915" />
<glyph unicode="&#x2002;" horiz-adv-x="957" />
<glyph unicode="&#x2003;" horiz-adv-x="1915" />
<glyph unicode="&#x2004;" horiz-adv-x="638" />
<glyph unicode="&#x2005;" horiz-adv-x="478" />
<glyph unicode="&#x2006;" horiz-adv-x="319" />
<glyph unicode="&#x2007;" horiz-adv-x="319" />
<glyph unicode="&#x2008;" horiz-adv-x="239" />
<glyph unicode="&#x2009;" horiz-adv-x="383" />
<glyph unicode="&#x200a;" horiz-adv-x="106" />
<glyph unicode="&#x2010;" horiz-adv-x="681" d="M72 438v226h538v-226h-538zM72 438v226h538v-226h-538z" />
<glyph unicode="&#x2011;" horiz-adv-x="681" d="M72 438v226h538v-226h-538zM72 438v226h538v-226h-538z" />
<glyph unicode="&#x2012;" horiz-adv-x="681" d="M72 438v226h538v-226h-538zM72 438v226h538v-226h-538z" />
<glyph unicode="&#x2013;" horiz-adv-x="1024" d="M0 457v188h1024v-188h-1024z" />
<glyph unicode="&#x2014;" horiz-adv-x="2048" d="M0 457v188h2048v-188h-2048z" />
<glyph unicode="&#x2018;" horiz-adv-x="671" d="M106 883l209 553h250l-157 -553h-302z" />
<glyph unicode="&#x2019;" horiz-adv-x="673" d="M106 883l158 553h303l-209 -553h-252z" />
<glyph unicode="&#x201a;" horiz-adv-x="731" d="M106 -258l158 553h303l-209 -553h-252z" />
<glyph unicode="&#x201c;" horiz-adv-x="1013" d="M70 934l209 551h245l-153 -551h-301zM487 934l203 551h254l-156 -551h-301z" />
<glyph unicode="&#x201d;" horiz-adv-x="1302" d="M197 934l155 551h301l-202 -551h-254zM616 934l154 551h301l-209 -551h-246z" />
<glyph unicode="&#x201e;" horiz-adv-x="1294" d="M197 -274l155 550h301l-202 -550h-254zM664 -274l153 550h301l-209 -550h-245z" />
<glyph unicode="&#x2022;" horiz-adv-x="1073" d="M156 719q0 84 27.5 148.5t84.5 121.5q109 109 264 109q84 0 150 -28t121 -81q55 -55 83.5 -120.5t31.5 -149.5q-2 -156 -115 -268q-55 -55 -121 -84t-150 -29q-82 0 -146 28.5t-118 84.5q-113 113 -112 268z" />
<glyph unicode="&#x2026;" horiz-adv-x="2111" d="M227 0v301h297v-301h-297zM907 0v301h293v-301h-293zM1591 0v301h293v-301h-293z" />
<glyph unicode="&#x202f;" horiz-adv-x="383" />
<glyph unicode="&#x205f;" horiz-adv-x="478" />
<glyph unicode="&#x20ac;" horiz-adv-x="1417" d="M109 492l43 178h139v88h-182l43 178h159q31 158 104.5 258t168 157.5t198 79t193.5 21.5q78 0 144.5 -11t119.5 -24q59 -16 113 -35l2 -231q-59 16 -123 31q-53 12 -120.5 22t-133.5 10q-129 0 -233.5 -65.5t-151.5 -212.5h627l-48 -178h-608v-88h600l-47 -178h-520 q49 -141 149.5 -209t229.5 -68q63 0 131 11.5t123 25.5q66 16 125 37l-2 -234q-51 -20 -113 -39q-53 -16 -120.5 -28.5t-143.5 -10.5q-90 0 -193.5 21.5t-198 78t-168 156t-104.5 259.5h-202z" />
<glyph unicode="&#x2122;" horiz-adv-x="1824" d="M82 1286h231v-725h150v725h231v146h-612v-146zM821 565v869h172l262 -623l258 623h170v-869h-145v559q-57 -139 -115.5 -280.5t-113.5 -278.5h-113l-229 557v-557h-146z" />
<glyph unicode="&#x25fc;" horiz-adv-x="1054" d="M0 0v1055h1055v-1055h-1055z" />
<glyph unicode="&#xfb01;" horiz-adv-x="1384" d="M39 854v201h203v188q0 106 40 170t100 96.5t130 43t129 8.5t99 -9l40 -8l-28 -227q-16 2 -37 6q-16 2 -39.5 4t-48.5 2q-41 0 -62.5 -13t-32 -32.5t-12.5 -44.5t-2 -47v-137h238v-201h-238v-854h-276v854h-203zM928 1386q0 63 45 107.5t110 44.5q63 0 108.5 -44.5 t45.5 -107.5q0 -66 -45 -110.5t-109 -44.5q-66 0 -110.5 45t-44.5 110zM946 0v1055h277v-1055h-277z" />
<glyph unicode="&#xfb02;" horiz-adv-x="1574" d="M39 854v201h203v188q0 106 40 170t100 96.5t130 43t129 8.5t99 -9l40 -8l-28 -227q-16 2 -37 6q-16 2 -39.5 4t-48.5 2q-41 0 -62.5 -13t-32 -32.5t-12.5 -44.5t-2 -47v-137h238v-201h-238v-854h-276v854h-203zM977 322v1214h276v-1241q2 -35 18.5 -55.5t40 -29.5 t53.5 -10t62 3v-211q-29 -6 -50 -9t-38 -6q-18 -2 -30 0q-78 0 -139.5 6.5t-104.5 40t-65.5 102.5t-22.5 196z" />
</font>
</defs>
</svg>
